<svg xmlns="http://www.w3.org/2000/svg" width="2000" height="2000" shape-rendering="geometricPrecision" image-rendering="optimizeQuality" fill-rule="evenodd" xmlns:v="https://vecta.io/nano"><style><![CDATA[.B{fill:#fefffe}.C{fill:#feff00}.D{fill:#bfc0bf}.E{fill:#7f807f}.F{fill:#7f8000}.G{fill:#7f0000}.H{fill:green}.I{fill:#7f0080}]]></style><path d="M499.5-.5h42v42h40v40 43h-40v250h40v42h43v-42h42v82h-42v43h-83v-83h-42V-.5z" class="H"/><path d="M999.5-.5h82v82h43v85h42v290 43 42h-42v-335h-43v-40h-40v-42h-42v-83-42zm625 0h42v250 42h-42v40h-43v43h-40v42h-42v40h-43v-40-42h43v-43h42v-40h40v-42-43h43v-82-83-42zm250 0h42v375h-42v42h-43v40h-40v43h-42v-43h-43v-40h43v-42h42v-43h40v-40h43v-42-83-125-42z"/><path d="M999.5 41.5v83h-43v-83h43z" class="E"/><path d="M1624.5 41.5v83h-83v-43h40v-40h43z" class="F"/><path d="M1874.5 41.5v125h-43v-42h-40v-43h40v-40h43z" class="E"/><use href="#B"/><path fill="#0f0" d="M581.5 124.5v42h43v40h42v168h-42v42h-43v-42h-40v-250h40z"/><use href="#C" class="H"/><use href="#D"/><path d="M956.5 124.5v82h-40v-82h40z" class="E"/><path d="M956.5 124.5h43 42v42h-42v40h-43v-82z" class="B"/><path d="M1541.5 124.5v42 40h-85v-40h43v-42h42z" class="F"/><path d="M1541.5 124.5h83v82h-43v-40h-40v-42zm250 0v82h-42v43 42h-43v83h-40v42h-42v40h-43v43h-40v-83h40v-42h43v-43h42v-40-42h40v-83h43v-42h42z" class="E"/><path d="M1791.5 124.5h40v42h43v83h-43v42h-40v-42h-42v-43h42v-82z" class="D"/><use href="#E" class="H"/><use href="#F"/><use href="#G" class="D"/><g class="B"><use href="#F" x="375"/><use href="#F" x="875"/></g><path d="M666.5 206.5h40v43h43v42h-43v40 43h-40v-168z" class="H"/><path d="M706.5 206.5h43v43-43h-43z"/><path d="M916.5 206.5v43h40 43 42 40v-43h43v335 40h-43v43h-40v-333h-42-43-40v458 42h-42v-250-42-168-125h42z" class="F"/><use href="#H" class="B"/><use href="#B" x="375" y="125" class="D"/><use href="#I" class="B"/><use href="#H" x="125" class="D"/><path d="M1456.5 206.5v85h-40v40 43h-42v42h-43v-85h43v-82h42v-43h40z" class="F"/><path d="M1456.5 206.5h85 40v43h-40v42h-42v40h-83v-40h40v-85z" class="D"/><path d="M749.5 249.5h42v42h40v40h43v168h-83v-168h-42v-40-42z"/><use href="#J" class="E"/><use href="#D" x="1125" y="125" class="B"/><g class="E"><use href="#K"/><use href="#L"/></g><path d="M956.5 291.5v415 43h-40v-458h40z" class="D"/><path d="M956.5 291.5h43v375 40h-43v-415z" class="B"/><path d="M999.5 291.5h42v333 42h-42v-375z" class="C"/><use href="#G" x="500" y="125" class="E"/><use href="#G" x="625" y="125" class="B"/><path d="M1749.5 291.5h42v40 43h-42-43v-83h43z" class="D"/><use href="#F" x="1125" y="125" class="E"/><path d="M706.5 331.5h43v125h-43v43h-82v-43h42v-82h40v-43z" class="D"/><path d="M749.5 331.5h42v168h-42v42h42v125h-42v-85h-43v-40h-82v-42h82v-43h43v-125zm667 0h83v43h-43v42h-40v-42-43z" class="E"/><use href="#M" class="B"/><use href="#N" class="D"/><use href="#J" y="125" class="B"/><use href="#J" x="125" y="125" class="D"/><use href="#C" x="1125" y="250" class="E"/><use href="#G" x="250" y="250" class="G"/><use href="#F" x="625" y="250" class="E"/><use href="#O" class="B"/><use href="#E" x="750" y="250" class="C"/><use href="#F" x="750" y="250" class="F"/><path d="M1541.5 416.5v83h-42-43v-43h43v-40h42z" class="B"/><use href="#G" x="625" y="250" class="D"/><use href="#F" x="1000" y="250" class="E"/><use href="#H" x="250" y="250" class="F"/><use href="#B" x="625" y="375" class="G"/><path fill="#fe0000" d="M1249.5 456.5h42v43h40v42 40h-40v43h-42v42h-43v40h-40v43h-42v42h-43v40h-40v43h-42v42h-43v40h-40v43h-42v-43h-43v-40h43v-42-43h42v-40h40v-42h43v-43h42v-40h40v-42h43v-43h42v-40h40v-42h43v-43z"/><use href="#H" x="375" y="250" class="D"/><path d="M1331.5 456.5h43v43 42h-43v-42-43z" class="C"/><use href="#I" x="375" y="250" class="F"/><use href="#H" x="500" y="250"/><use href="#M" y="125" class="D"/><use href="#I" x="625" y="250" class="B"/><use href="#H" x="750" y="250" class="C"/><g class="F"><use href="#B" x="1125" y="375"/><use href="#P"/></g><use href="#N" x="-625" y="125"/><use href="#P" x="250" class="B"/><use href="#Q" class="G"/><path d="M1374.5 499.5h42v42 40h-42v-40-42z"/><path d="M1416.5 499.5h40 43v42h-43-40v-42z" class="F"/><use href="#D" x="875" y="375" class="E"/><use href="#Q" x="375" class="D"/><use href="#C" x="1000" y="375" class="F"/><use href="#D" x="1000" y="375" class="C"/><use href="#Q" x="500" class="F"/><use href="#C" x="1125" y="375"/><path d="M541.5 541.5v40h-42v43h-43v42h-40v40h-42v85h-83v-85h40v-40h43v-42h42v-43h40v-40h85z" class="F"/><path d="M541.5 541.5h83v40h-43v85 40h-40v-40-42-43-40z" class="E"/><path d="M624.5 541.5h82v40h43v85h-168v-85h43v-40z" class="D"/><path d="M791.5 541.5h83v250 40 43h-43v42 40h-40-42v-40h42v-250-125z"/><g class="G"><use href="#E" x="500" y="375"/><use href="#O" y="125"/></g><use href="#F" x="750" y="375" class="H"/><use href="#O" x="125" y="125" fill="#00fffe"/><path fill="#00f" d="M1499.5 541.5h42v40h40v43h-40v42h-42v83 42h-43v40h-40v43h-42v42h-43v40h-40v43h-210v-43h43v-40h42v-42h40v-43h43v-40h42v-42h40v-43h43v-40h42v-42h40v-43h43v-40z"/><use href="#F" x="875" y="375" class="F"/><use href="#O" x="250" y="125" class="C"/><use href="#E" x="1000" y="375" class="F"/><use href="#F" x="1000" y="375"/><g class="B"><path d="M541.5 581.5v43h-42v-43h42z"/><use href="#I" x="-375" y="375"/></g><g class="G"><use href="#M" x="-500" y="250"/><use href="#R"/></g><use href="#B" x="750" y="500"/><path fill="#00fffe" d="M1374.5 581.5h42 40v43h-40v42h-42v40h-43v43h-40v42h-42v40h-43v43h-40v42h-42v40h-43v43h-40v-43-40h40v-42h43v-43h42v-40h40v-42h43v-43h42v-40h40v-42h43v-43z"/><use href="#B" x="1000" y="500" class="F"/><use href="#I" x="625" y="375"/><use href="#K" x="-1375" y="375" class="B"/><use href="#D" x="-125" y="500" class="D"/><g class="G"><use href="#Q" x="-125" y="125"/><use href="#N" x="-125" y="250"/></g><use href="#Q" x="125" y="125"/><use href="#J" y="375" fill="navy"/><path d="M1581.5 624.5h43v82h-43v125h-40v43h-85v42h-82v-42h42v-43h40v-40h43v-42h42v-83h40v-42z"/><path d="M1624.5 624.5h42v42 40h-42v-82z" class="F"/><path d="M456.5 666.5v40h-40v-40h40z" class="B"/><use href="#O" x="-875" y="250" class="D"/><path d="M499.5 666.5h42v40 210h-42v-42h-43v-43h-40v-82h40v-43h43v-40z"/><path d="M581.5 666.5h168 42v250h-42v-210h-168v-40z" class="I"/><g class="G"><use href="#E" x="375" y="500"/><use href="#L" x="500" y="375"/></g><use href="#E" x="625" y="500"/><path fill="navy" d="M1541.5 666.5v83h-42v-83h42z"/><path d="M1666.5 666.5h40v40 43h-40v-43-40z" class="E"/><path d="M416.5 706.5v43 82h40v43h43v42h-43-40v-42h-42v-83-85h42z" class="B"/><use href="#H" x="-500" y="500" class="D"/><path d="M541.5 706.5h40v210h-40v-210z" class="I"/><path fill="#fe00ff" d="M581.5 706.5h168v210 40h-43v43h-40-42v-43h-43v-40-210z"/><g class="G"><use href="#B" x="375" y="625"/><use href="#R" x="-125" y="125"/></g><use href="#B" x="625" y="625"/><path d="M1624.5 706.5h42v43 42 40 43h-42v42h-83v40h-85v43h-82v42h-668v-42h85 83 42 83 42 40 210v-43h40 43v-40h82v-42h85v-43h40v-125h43z" class="B"/><path d="M1706.5 706.5h43v85h42v165h40v43h43v42h42v83h40v42h43v333h-43v42h-82v-42h42v-333h-42v-85h-43v-40h-40v-42h-42v82 418h-43v-625h-40v-43h40v-40h-40v-42h40v-43zm43 375h42v43h40v82h43v250h-43v43h-82v-418z"/><g class="G"><use href="#Q" x="-250" y="250"/><use href="#N" x="-250" y="375"/></g><use href="#Q" y="250"/><path d="M291.5 791.5h83v83h-43v-43h-40v-40z" class="E"/><g class="G"><use href="#E" x="250" y="625"/><use href="#L" x="375" y="500"/></g><use href="#E" x="500" y="625"/><g class="E"><use href="#F" x="1000" y="625"/><path d="M291.5 831.5v43h-42v-43h42z"/></g><use href="#H" x="-625" y="625" class="D"/><use href="#R" x="-250" y="250" class="G"/><use href="#B" x="500" y="750"/><use href="#D" x="-375" y="750"/><use href="#Q" x="-875" y="375" class="E"/><use href="#C" x="-250" y="750" class="D"/><path d="M374.5 874.5h42v42h40v40h-40-42v-40-42z" class="F"/><g class="G"><use href="#K" x="-1000" y="625"/><use href="#N" x="-375" y="500"/></g><use href="#Q" x="-125" y="375"/><path d="M1666.5 874.5h40v625h-165v-500h-42v42h-83-42v-42h82v-43h85v-40h83v-42h42z" class="F"/><path d="M291.5 916.5h40v40h43v43h-43-40v-83z"/><use href="#O" x="-1000" y="500" class="E"/><path d="M456.5 916.5h43v165h-43v-40-42-43-40z" class="H"/><path fill="#0f0" d="M499.5 916.5h42v40h40v85h-40v83h40v42h-40v83h-42v167h-43v125h-82v-292-43h42v-40-42h40v-43h43v-165z"/><use href="#F" x="-125" y="750" class="H"/><path d="M999.5 916.5v40 43h-83v-43h40v-40h43z" class="G"/><use href="#E" x="375" y="750"/><use href="#L" x="625" y="625"/><use href="#I" x="-625" y="750" class="E"/><use href="#H" x="-500" y="750" class="D"/><path d="M581.5 956.5h43v43h42v42 40h-42v43 42 40 43h-43v42 40h-40v43 42 40 43 42h-42v40h-43v43h-40-42v-43h-43-40v-375h40v43h43v292h82v-125h43v-167h42v-83h40v-42h-40v-83h40v-85z" class="H"/><path d="M749.5 956.5h42v43h-85v-43h43z" class="I"/><path d="M791.5 956.5h40 43v43h-83v-43z" class="G"/><use href="#I" y="750" class="E"/><path d="M291.5 999.5h40v207h-40v-207z" class="F"/><path d="M331.5 999.5h43v42 40h42v43h-42v42h42v40h-42v43h-43v-43-207z" class="B"/><use href="#D" x="-250" y="875"/><use href="#Q" x="-750" y="500" class="E"/><g class="D"><use href="#Q" x="-500" y="500"/><path d="M1541.5 1499.5h-125v-43h-42v-40h42v-42h-42v-43h42v-40h-42v-42h42v-43h-42v-40h42v-42h-42v-43h42v-40h83v-42h42v500z"/></g><path d="M1874.5 1541.5h-458v-42h125 165 43 82v-43h43v-250h-43v-82h-40v-43h-42v-82h42v42h40v40h43v85h42v333h-42v42z" class="E"/><use href="#E" x="-250" y="875" class="C"/><use href="#F" x="-250" y="875"/><path d="M666.5 1041.5h40 668v40h-83-42-43-40-42-43-40-42-43-40-42-43-40-42-43v43h-82v-43h42v-40z" class="F"/><use href="#E" x="750" y="875" class="C"/><use href="#H" x="-500" y="875" class="H"/><use href="#M" x="-875" y="750" class="C"/><use href="#I" x="-250" y="875" class="B"/><use href="#H" x="-125" y="875" class="C"/><use href="#B" x="250" y="1000" class="B"/><use href="#I" x="-125" y="875" class="C"/><use href="#H" y="875" class="B"/><use href="#B" x="375" y="1000" class="C"/><use href="#I" y="875" class="B"/><use href="#H" x="125" y="875" class="C"/><use href="#B" x="500" y="1000" class="B"/><use href="#I" x="125" y="875" class="C"/><use href="#H" x="250" y="875" class="B"/><use href="#B" x="625" y="1000" class="C"/><use href="#I" x="250" y="875" class="B"/><g class="C"><path d="M1291.5 1081.5h83v43h-43v42h43v40h-43v43h43v42h-43v40h43v43h-43v42h43v40h-83v-40h-42v-42h42v-43h-42v-40h42v-42h-42v-43h42v-40h-42v-42h42v-43z"/><use href="#N" x="-1000" y="750"/></g><path d="M624.5 1124.5h82v42h43 42v40h40 43v43h42 40v42h43 42v40h40 43v43h42 40v42h43 42v40h83v43h-125v-43h-83v-40h-85v-42h-82v-43h-83v-40h-85v-42h-82v-43h-83v-40h-42v-42z" class="E"/><use href="#C" x="125" y="1000" class="B"/><use href="#D" x="125" y="1000" class="C"/><use href="#Q" x="-375" y="625" class="B"/><use href="#C" x="250" y="1000" class="C"/><use href="#D" x="250" y="1000" class="B"/><use href="#Q" x="-250" y="625" class="C"/><use href="#C" x="375" y="1000" class="B"/><use href="#D" x="375" y="1000" class="C"/><use href="#Q" x="-125" y="625" class="B"/><use href="#C" x="500" y="1000" class="C"/><use href="#D" x="500" y="1000" class="B"/><use href="#Q" y="625" class="C"/><use href="#C" x="625" y="1000" class="B"/><use href="#K" x="-500" y="875" class="D"/><use href="#D" x="750" y="1000" class="C"/><use href="#E" y="1000"/><use href="#F" x="125" y="1000" class="C"/><use href="#O" x="-500" y="750" class="B"/><use href="#E" x="250" y="1000" class="C"/><use href="#F" x="250" y="1000" class="B"/><use href="#O" x="-375" y="750" class="C"/><use href="#E" x="375" y="1000" class="B"/><use href="#F" x="375" y="1000" class="C"/><use href="#O" x="-250" y="750" class="B"/><use href="#E" x="500" y="1000" class="C"/><use href="#F" x="500" y="1000" class="B"/><use href="#O" x="-125" y="750" class="C"/><g class="B"><use href="#E" x="625" y="1000"/><use href="#I" x="-375" y="1000"/></g><use href="#S"/><use href="#I" x="-125" y="1000" class="B"/><use href="#H" y="1000" class="C"/><use href="#B" x="375" y="1125" class="B"/><use href="#I" y="1000" class="C"/><use href="#H" x="125" y="1000" class="B"/><use href="#B" x="500" y="1125" class="C"/><use href="#I" x="125" y="1000" class="B"/><use href="#H" x="250" y="1000" class="C"/><use href="#B" x="625" y="1125" class="B"/><use href="#M" x="-250" y="875" class="D"/><use href="#I" x="375" y="1000" class="C"/><use href="#K" x="-1250" y="1000" class="B"/><use href="#D" y="1125" class="C"/><use href="#Q" x="-500" y="750" class="B"/><use href="#C" x="125" y="1125" class="C"/><path d="M749.5 1249.5h82v42h-40-42v-42z"/><use href="#C" x="375" y="1125" class="C"/><use href="#D" x="375" y="1125" class="B"/><use href="#Q" x="-125" y="750" class="C"/><use href="#C" x="500" y="1125" class="B"/><use href="#D" x="500" y="1125" class="C"/><use href="#Q" y="750" class="B"/><use href="#C" x="625" y="1125" class="C"/><use href="#D" x="625" y="1125" class="B"/><use href="#O" x="-750" y="875" class="C"/><use href="#E" y="1125" class="B"/><use href="#F" y="1125" class="C"/><use href="#O" x="-625" y="875" class="B"/><use href="#E" x="125" y="1125" class="C"/><use href="#F" x="125" y="1125" class="B"/><path d="M831.5 1291.5h85v40h-42-43v-40z"/><use href="#F" x="375" y="1125" class="B"/><use href="#O" x="-250" y="875" class="C"/><use href="#E" x="500" y="1125" class="B"/><use href="#F" x="500" y="1125" class="C"/><use href="#O" x="-125" y="875" class="B"/><use href="#L" x="625" y="1000" class="D"/><g class="C"><use href="#E" x="750" y="1125"/><use href="#R" x="-750" y="750"/></g><use href="#B" y="1250" class="B"/><use href="#I" x="-375" y="1125" class="C"/><use href="#H" x="-250" y="1125" class="B"/><use href="#B" x="125" y="1250" class="C"/><use href="#I" x="-250" y="1125" class="B"/><use href="#H" x="-125" y="1125" class="C"/><use href="#B" x="250" y="1250" class="B"/><use href="#I" x="-125" y="1125" class="C"/><use href="#S" x="250" y="125"/><use href="#I" x="125" y="1125" class="C"/><use href="#H" x="250" y="1125" class="B"/><use href="#B" x="625" y="1250" class="C"/><g class="B"><use href="#I" x="250" y="1125"/><use href="#Q" x="-625" y="875"/></g><use href="#C" y="1250" class="C"/><use href="#D" y="1250" class="B"/><use href="#Q" x="-500" y="875" class="C"/><use href="#C" x="125" y="1250" class="B"/><use href="#D" x="125" y="1250" class="C"/><use href="#Q" x="-375" y="875" class="B"/><use href="#C" x="250" y="1250" class="C"/><use href="#D" x="250" y="1250" class="B"/><use href="#Q" x="-250" y="875" class="C"/><use href="#C" x="375" y="1250" class="B"/><path d="M999.5 1374.5h82v42h-40-42v-42z"/><use href="#C" x="625" y="1250" class="B"/><use href="#K" x="-500" y="1125" class="D"/><g class="C"><use href="#D" x="750" y="1250"/><use href="#F" x="-125" y="1250"/></g><use href="#O" x="-750" y="1000" class="B"/><use href="#E" y="1250" class="C"/><use href="#F" y="1250" class="B"/><use href="#O" x="-625" y="1000" class="C"/><use href="#E" x="125" y="1250" class="B"/><use href="#F" x="125" y="1250" class="C"/><use href="#O" x="-500" y="1000" class="B"/><use href="#E" x="250" y="1250" class="C"/><use href="#F" x="250" y="1250" class="B"/><use href="#O" x="-375" y="1000" class="C"/><use href="#E" x="375" y="1250" class="B"/><use href="#F" x="375" y="1250" class="C"/><path d="M1081.5 1416.5h85v40h-42-43v-40z"/><use href="#H" x="-375" y="1250" class="B"/><use href="#B" y="1375" class="C"/><use href="#I" x="-375" y="1250" class="B"/><use href="#H" x="-250" y="1250" class="C"/><use href="#B" x="125" y="1375" class="B"/><use href="#I" x="-250" y="1250" class="C"/><use href="#H" x="-125" y="1250" class="B"/><use href="#B" x="250" y="1375" class="C"/><use href="#I" x="-125" y="1250" class="B"/><use href="#H" y="1250" class="C"/><use href="#B" x="375" y="1375" class="B"/><use href="#I" y="1250" class="C"/><use href="#H" x="125" y="1250" class="B"/><use href="#B" x="500" y="1375" class="C"/><use href="#I" x="125" y="1250" class="B"/><use href="#S" x="500" y="250"/><g class="C"><use href="#I" x="375" y="1250"/><use href="#Q" x="-625" y="1000"/></g><use href="#C" y="1375" class="B"/><use href="#D" y="1375" class="C"/><use href="#Q" x="-500" y="1000" class="B"/><use href="#C" x="125" y="1375" class="C"/><use href="#D" x="125" y="1375" class="B"/><use href="#Q" x="-375" y="1000" class="C"/><use href="#C" x="250" y="1375" class="B"/><use href="#D" x="250" y="1375" class="C"/><use href="#Q" x="-250" y="1000" class="B"/><use href="#C" x="375" y="1375" class="C"/><use href="#D" x="375" y="1375" class="B"/><use href="#Q" x="-125" y="1000" class="C"/><use href="#C" x="500" y="1375" class="B"/><use href="#D" x="500" y="1375" class="C"/><use href="#Q" y="1000" class="B"/><use href="#C" x="625" y="1375" class="C"/><path d="M1249.5 1499.5h125 42v42h-42-43-82v-42z"/><use href="#G" x="-500" y="1375" class="C"/><use href="#F" x="-125" y="1375" class="B"/><use href="#O" x="-750" y="1125" class="C"/><use href="#E" y="1375" class="B"/><use href="#F" y="1375" class="C"/><use href="#O" x="-625" y="1125" class="B"/><use href="#E" x="125" y="1375" class="C"/><use href="#F" x="125" y="1375" class="B"/><use href="#O" x="-500" y="1125" class="C"/><use href="#E" x="250" y="1375" class="B"/><use href="#F" x="250" y="1375" class="C"/><use href="#O" x="-375" y="1125" class="B"/><use href="#E" x="375" y="1375" class="C"/><use href="#F" x="375" y="1375" class="B"/><use href="#O" x="-250" y="1125" class="C"/><use href="#E" x="500" y="1375" class="B"/><use href="#F" x="500" y="1375" class="C"/><use href="#O" x="-125" y="1125" class="B"/><path d="M1249.5 1541.5h82v40h43v43h-43v42h43v40h-43v43h43v42h-43v40h-40-42v-40h42v-42h-42v-43h42v-40h-42v-42h42v-43h-42v-40z" class="C"/><use href="#O" y="1125" class="D"/><use href="#E" x="750" y="1375" class="C"/><path d="M1416.5 1541.5h458v40h-43v43h-82v82h-43v-125h-165-125v-40z"/><path d="M291.5 1581.5h40v85h85v40h40 43v43h42v42h40v40h43 42 40v43h43 42 40 43 42 40 43 42 40 43 42 40 43 42v-43h40 85v-40h40v-42h85v-168h165v125h-40v43h-42v42h-43v40h-82v43h-83v42h-42v40h-708v-40h-42v-42h-83v-43h-85v-40h-40v-42h-42v-43h-43v43h-40v-168z" class="F"/><path d="M331.5 1581.5h43v43h42v42h-85v-85z" class="B"/><use href="#M" x="-1125" y="1250" class="C"/><use href="#I" x="-500" y="1375" class="B"/><use href="#H" x="-375" y="1375" class="C"/><use href="#B" y="1500" class="B"/><use href="#I" x="-375" y="1375" class="C"/><use href="#H" x="-250" y="1375" class="B"/><use href="#B" x="125" y="1500" class="C"/><use href="#I" x="-250" y="1375" class="B"/><use href="#H" x="-125" y="1375" class="C"/><use href="#B" x="250" y="1500" class="B"/><use href="#I" x="-125" y="1375" class="C"/><use href="#H" y="1375" class="B"/><use href="#B" x="375" y="1500" class="C"/><use href="#I" y="1375" class="B"/><use href="#H" x="125" y="1375" class="C"/><use href="#B" x="500" y="1500" class="B"/><use href="#I" x="125" y="1375" class="C"/><use href="#H" x="250" y="1375" class="B"/><use href="#B" x="625" y="1500" class="C"/><use href="#I" x="250" y="1375" class="B"/><path d="M1374.5 1581.5h42 125v168h-85v42h-40v40h-85v-40h43v-42h42v-43h-42v-40h42v-42h-42v-43z" class="D"/><use href="#Q" x="-750" y="1125" class="C"/><use href="#C" x="-125" y="1500" class="B"/><use href="#D" x="-125" y="1500" class="C"/><use href="#Q" x="-625" y="1125" class="B"/><use href="#C" y="1500" class="C"/><use href="#D" y="1500" class="B"/><use href="#Q" x="-500" y="1125" class="C"/><use href="#C" x="125" y="1500" class="B"/><use href="#D" x="125" y="1500" class="C"/><use href="#Q" x="-375" y="1125" class="B"/><use href="#C" x="250" y="1500" class="C"/><use href="#D" x="250" y="1500" class="B"/><use href="#Q" x="-250" y="1125" class="C"/><use href="#C" x="375" y="1500" class="B"/><use href="#D" x="375" y="1500" class="C"/><use href="#Q" x="-125" y="1125" class="B"/><use href="#C" x="500" y="1500" class="C"/><use href="#D" x="500" y="1500" class="B"/><use href="#Q" y="1125" class="C"/><use href="#C" x="625" y="1500" class="B"/><use href="#K" x="-500" y="1375" class="D"/><use href="#D" x="750" y="1500" class="C"/><use href="#F" x="-250" y="1500" class="B"/><use href="#O" x="-875" y="1250" class="C"/><use href="#E" x="-125" y="1500" class="B"/><use href="#F" x="-125" y="1500" class="C"/><use href="#O" x="-750" y="1250" class="B"/><use href="#E" y="1500" class="C"/><use href="#F" y="1500" class="B"/><use href="#O" x="-625" y="1250" class="C"/><use href="#E" x="125" y="1500" class="B"/><use href="#F" x="125" y="1500" class="C"/><use href="#O" x="-500" y="1250" class="B"/><use href="#E" x="250" y="1500" class="C"/><use href="#F" x="250" y="1500" class="B"/><use href="#O" x="-375" y="1250" class="C"/><use href="#E" x="375" y="1500" class="B"/><use href="#F" x="375" y="1500" class="C"/><use href="#O" x="-250" y="1250" class="B"/><use href="#E" x="500" y="1500" class="C"/><use href="#F" x="500" y="1500" class="B"/><use href="#O" x="-125" y="1250" class="C"/><use href="#E" x="625" y="1500" class="B"/><path d="M374.5 1749.5h-43v-43h43v43z" class="H"/><use href="#I" x="-500" y="1500" class="C"/><use href="#H" x="-375" y="1500" class="B"/><use href="#B" y="1625" class="C"/><use href="#I" x="-375" y="1500" class="B"/><use href="#H" x="-250" y="1500" class="C"/><use href="#B" x="125" y="1625" class="B"/><use href="#I" x="-250" y="1500" class="C"/><use href="#H" x="-125" y="1500" class="B"/><use href="#B" x="250" y="1625" class="C"/><use href="#I" x="-125" y="1500" class="B"/><use href="#H" y="1500" class="C"/><use href="#B" x="375" y="1625" class="B"/><use href="#I" y="1500" class="C"/><use href="#H" x="125" y="1500" class="B"/><use href="#B" x="500" y="1625" class="C"/><use href="#I" x="125" y="1500" class="B"/><use href="#H" x="250" y="1500" class="C"/><use href="#B" x="625" y="1625" class="B"/><use href="#M" x="-250" y="1375" class="D"/><use href="#I" x="375" y="1500" class="C"/><use href="#R" x="375" y="1125"/><path fill="#0f0" d="M291.5 1749.5h40 43v42 40h42v85h-167v-42h-208v42h-42v-85h82 43v-40h42v-42h125z"/><use href="#D" x="-250" y="1625"/><use href="#Q" x="-625" y="1250" class="C"/><use href="#C" y="1625" class="B"/><use href="#D" y="1625" class="C"/><use href="#Q" x="-500" y="1250" class="B"/><use href="#C" x="125" y="1625" class="C"/><use href="#D" x="125" y="1625" class="B"/><use href="#Q" x="-375" y="1250" class="C"/><use href="#C" x="250" y="1625" class="B"/><use href="#D" x="250" y="1625" class="C"/><use href="#Q" x="-250" y="1250" class="B"/><use href="#C" x="375" y="1625" class="C"/><use href="#D" x="375" y="1625" class="B"/><use href="#Q" x="-125" y="1250" class="C"/><use href="#C" x="500" y="1625" class="B"/><use href="#D" x="500" y="1625" class="C"/><use href="#Q" y="1250" class="B"/><use href="#C" x="625" y="1625" class="C"/><use href="#D" x="625" y="1625" class="B"/><use href="#N" x="250" y="1375"/><g class="H"><use href="#L" x="-625" y="1500"/><use href="#E" x="-250" y="1625"/></g><use href="#F" x="-250" y="1625"/><use href="#O" x="-750" y="1375" class="C"/><use href="#E" y="1625" class="B"/><use href="#F" y="1625" class="C"/><use href="#O" x="-625" y="1375" class="B"/><use href="#E" x="125" y="1625" class="C"/><use href="#F" x="125" y="1625" class="B"/><use href="#O" x="-500" y="1375" class="C"/><use href="#E" x="250" y="1625" class="B"/><use href="#F" x="250" y="1625" class="C"/><use href="#O" x="-375" y="1375" class="B"/><use href="#E" x="375" y="1625" class="C"/><use href="#F" x="375" y="1625" class="B"/><use href="#O" x="-250" y="1375" class="C"/><use href="#E" x="500" y="1625" class="B"/><use href="#F" x="500" y="1625" class="C"/><use href="#O" x="-125" y="1375" class="B"/><use href="#L" x="875" y="1500"/><path d="M416.5 1831.5h40v43h43v42h-43v40h-40v43h-167v-43h-43v-40h-165v-42h208v42h167v-85z" class="H"/><path d="M456.5 1831.5h85v43h-42-43v-43z"/><use href="#B" x="125" y="1750" class="C"/><use href="#I" x="-250" y="1625" class="B"/><use href="#H" x="-125" y="1625" class="C"/><use href="#B" x="250" y="1750" class="B"/><use href="#I" x="-125" y="1625" class="C"/><use href="#H" y="1625" class="B"/><use href="#B" x="375" y="1750" class="C"/><use href="#I" y="1625" class="B"/><use href="#H" x="125" y="1625" class="C"/><use href="#B" x="500" y="1750" class="B"/><use href="#I" x="125" y="1625" class="C"/><use href="#H" x="250" y="1625" class="B"/><use href="#B" x="625" y="1750" class="C"/><use href="#I" x="250" y="1625" class="B"/><path d="M1581.5 1831.5v43h-82v-43h82z"/><use href="#P" y="1375"/><path d="M1499.5 1874.5v42h-83v-42h83z"/><use href="#E" y="1750"/><use href="#G" x="375" y="1750"/><path d="M666.5 1956.5h708v43h-708v-43z"/><defs ><path id="B" d="M581.5 81.5h43v43h-43v-43z"/><path id="C" d="M581.5 124.5h43v42h-43v-42z"/><path id="D" d="M624.5 124.5h42v42h-42v-42z"/><path id="E" d="M624.5 166.5h42v40h-42v-40z"/><path id="F" d="M666.5 166.5h40v40h-40v-40z"/><path id="G" d="M1041.5 166.5v40h-42v-40h42z"/><path id="H" d="M916.5 206.5h40v43h-40v-43z"/><path id="I" d="M999.5 206.5h42v43h-42v-43z"/><path id="J" d="M1581.5 249.5v42h-40v-42h40z"/><path id="K" d="M1874.5 249.5v42h-43v-42h43z"/><path id="L" d="M749.5 291.5v40h-43v-40h43z"/><path id="M" d="M1624.5 331.5v43h-43v-43h43z"/><path id="N" d="M1416.5 374.5v42h-42v-42h42z"/><path id="O" d="M1331.5 416.5h43v40h-43v-40z"/><path id="P" d="M541.5 499.5h83v42h-83v-42z"/><path id="Q" d="M1166.5 499.5h40v42h-40v-42z"/><path id="R" d="M1331.5 581.5v43h-40v-43h40z"/><path id="S" d="M666.5 1206.5h83v43h-43-40v-43z"/></defs></svg>